<?xml version="1.0" encoding="utf-8"?>
<svg xmlns="http://www.w3.org/2000/svg" style="margin: auto; display: block; shape-rendering: auto;" width="281" height="71" preserveAspectRatio="xMidYMid">
<style type="text/css">
  text {
    text-anchor: middle; font-size: 55px; opacity: 0;
  }
</style>
<g style="transform-origin: 140.5px 35.5px; transform: scale(0.6875);">
<g transform="translate(140.5,35.5)">
  <g transform="translate(0,0)"><g class="path" style="transform: scale(0.91); transform-origin: -131.56px -4.90222px; animation: 1s linear -0.6s infinite normal forwards running breath-25d93ce0-c561-499c-9d0b-574a4c13aaf0;"><path d="M3.13 0L37.34 0L37.73-15.63L36.17-15.63L34.84-10.39L34.84-10.39Q32.97-3.20 28.59-2.19L28.59-2.19L28.59-2.19Q27.66-2.03 26.80-2.03L26.80-2.03L16.09-2.03L16.09-44.84L22.66-44.84L22.66-46.88L3.13-46.88L3.13-44.84L9.38-44.84L9.38-2.03L3.13-2.03L3.13 0" fill="#ffffff" stroke="none" stroke-width="none" transform="translate(-151.989990234375,18.53778270374646)" style="fill: rgb(255, 255, 255);"></path></g><g class="path" style="transform: scale(0.91); transform-origin: -93.435px 1.93778px; animation: 1s linear -0.54s infinite normal forwards running breath-25d93ce0-c561-499c-9d0b-574a4c13aaf0;"><path d="M48.28-16.64L48.28-16.64L48.28-16.64Q48.28-28.75 54.92-31.41L54.92-31.41L54.92-31.41Q56.64-32.03 58.52-32.03L58.52-32.03L58.52-32.03Q67.19-32.03 68.59-21.09L68.59-21.09L68.59-21.09Q68.83-19.22 68.83-16.95L68.83-16.95L68.83-16.95Q68.83-3.83 61.64-1.56L61.64-1.56L61.64-1.56Q60.23-1.17 58.75-1.17L58.75-1.17L58.75-1.17Q50.86-1.17 48.83-10.55L48.83-10.55L48.83-10.55Q48.28-13.28 48.28-16.64zM58.75-33.98L58.75-33.98L58.75-33.98Q51.25-33.98 46.25-28.83L46.25-28.83L46.25-28.83Q41.64-24.06 41.64-16.95L41.64-16.95L41.64-16.95Q41.64-7.11 48.83-2.19L48.83-2.19L48.83-2.19Q53.20 0.78 58.52 0.78L58.52 0.78L58.52 0.78Q66.02 0.78 70.94-4.53L70.94-4.53L70.94-4.53Q75.47-9.38 75.47-16.64L75.47-16.64L75.47-16.64Q75.47-26.48 68.20-31.25L68.20-31.25L68.20-31.25Q63.91-33.98 58.75-33.98" fill="#ffffff" stroke="none" stroke-width="none" transform="translate(-151.989990234375,18.53778270374646)" style="fill: rgb(255, 255, 255);"></path></g><g class="path" style="transform: scale(0.91); transform-origin: -53.395px 1.93778px; animation: 1s linear -0.48s infinite normal forwards running breath-25d93ce0-c561-499c-9d0b-574a4c13aaf0;"><path d="M109.14 0.78L109.14 0.78L109.14 0.78Q115.16 0.78 115.78-6.48L115.78-6.48L115.78-6.48Q115.86-6.95 115.86-7.34L115.86-7.34L113.83-7.42L113.83-7.42Q113.28-1.72 110.78-1.64L110.78-1.64L110.78-1.64Q108.75-1.80 108.67-5.70L108.67-5.70L108.67-22.19L108.67-22.19Q108.67-33.36 97.50-33.98L97.50-33.98L97.50-33.98Q96.80-33.98 96.09-33.98L96.09-33.98L96.09-33.98Q87.34-33.98 84.38-29.92L84.38-29.92L84.38-29.92Q83.44-28.59 83.44-27.27L83.44-27.27L83.44-27.27Q83.44-24.84 85.70-24.45L85.70-24.45L85.70-24.45Q86.09-24.38 86.48-24.38L86.48-24.38L86.48-24.38Q88.28-24.38 89.14-26.64L89.14-26.64L89.14-26.64Q90.23-29.53 90.63-30.08L90.63-30.08L90.63-30.08Q92.11-32.03 95.23-32.03L95.23-32.03L95.23-32.03Q102.58-31.56 102.81-23.98L102.81-23.98L102.81-19.06L102.81-19.06Q84.45-19.06 81.80-11.41L81.80-11.41L81.80-11.41Q81.33-9.92 81.33-8.20L81.33-8.20L81.33-8.20Q81.33-2.27 86.56-0.08L86.56-0.08L86.56-0.08Q88.67 0.78 91.02 0.78L91.02 0.78L91.02 0.78Q96.72 0.78 100.63-3.13L100.63-3.13L100.63-3.13Q102.03-4.61 102.73-6.25L102.73-6.25L102.73-6.25Q103.67 0.70 109.14 0.78zM93.59-2.34L93.59-2.34L93.59-2.34Q88.83-2.34 87.73-7.11L87.73-7.11L87.73-7.11Q87.50-8.20 87.50-9.53L87.50-9.53L87.50-9.53Q87.50-14.77 93.52-16.17L93.52-16.17L93.52-16.17Q96.72-16.88 102.81-16.95L102.81-16.95L102.81-10.70L102.81-10.70Q101.64-5.31 97.11-3.13L97.11-3.13L97.11-3.13Q95.31-2.34 93.59-2.34" fill="#ffffff" stroke="none" stroke-width="none" transform="translate(-151.989990234375,18.53778270374646)" style="fill: rgb(255, 255, 255);"></path></g><g class="path" style="transform: scale(0.91); transform-origin: -13.705px -6.46222px; animation: 1s linear -0.42s infinite normal forwards running breath-25d93ce0-c561-499c-9d0b-574a4c13aaf0;"><path d="M145.39-8.28L146.02 0L157.19 0L157.19 0Q157.19-1.72 156.02-1.88L156.02-1.88L156.02-1.88Q155.70-1.95 155.23-1.95L155.23-1.95L151.33-1.95L151.17-50.78L137.89-50.78L137.89-48.83L145.31-48.83L145.31-29.77L145.31-29.77Q141.48-33.98 135-33.98L135-33.98L135-33.98Q126.41-33.98 122.03-26.33L122.03-26.33L122.03-26.33Q119.38-21.64 119.38-15.78L119.38-15.78L119.38-15.78Q119.38-6.09 125.47-1.64L125.47-1.64L125.47-1.64Q128.91 0.78 133.05 0.78L133.05 0.78L133.05 0.78Q141.56 0.63 145.39-8.28L145.39-8.28zM126.02-16.72L126.02-16.72L126.02-16.72Q126.02-27.73 131.95-31.02L131.95-31.02L131.95-31.02Q133.83-32.03 136.09-32.03L136.09-32.03L136.09-32.03Q141.80-32.03 144.22-25.94L144.22-25.94L144.22-25.94Q145.55-22.66 145.55-18.20L145.55-18.20L145.55-18.20Q145.55-8.83 140.86-4.61L140.86-4.61L140.86-4.61Q138.36-2.34 135.16-2.34L135.16-2.34L135.16-2.34Q128.75-2.34 126.80-10.16L126.80-10.16L126.80-10.16Q126.02-13.05 126.02-16.72" fill="#ffffff" stroke="none" stroke-width="none" transform="translate(-151.989990234375,18.53778270374646)" style="fill: rgb(255, 255, 255);"></path></g><g class="path" style="transform: scale(0.91); transform-origin: 18.405px 1.93778px; animation: 1s linear -0.36s infinite normal forwards running breath-25d93ce0-c561-499c-9d0b-574a4c13aaf0;"><path d="M177.42-1.95L177.42-1.95L173.52-1.95L173.52-33.20L161.41-33.20L161.41-31.25L167.66-31.25L167.66-6.64L167.66-6.64Q167.66-3.05 165.23-2.27L165.23-2.27L165.23-2.27Q164.06-1.95 161.41-1.95L161.41-1.95L161.41 0L179.38 0L179.38 0Q179.38-1.72 178.20-1.88L178.20-1.88L178.20-1.88Q177.81-1.95 177.42-1.95" fill="#ffffff" stroke="none" stroke-width="none" transform="translate(-151.989990234375,18.53778270374646)" style="fill: rgb(255, 255, 255);"></path></g><g class="path" style="transform: scale(0.91); transform-origin: 18.205px -26.0722px; animation: 1s linear -0.3s infinite normal forwards running breath-25d93ce0-c561-499c-9d0b-574a4c13aaf0;"><path d="M174.45-44.61L174.45-44.61L174.45-44.61Q174.45-47.34 172.03-48.52L172.03-48.52L172.03-48.52Q171.09-48.91 170.23-48.91L170.23-48.91L170.23-48.91Q167.50-48.91 166.33-46.41L166.33-46.41L166.33-46.41Q165.94-45.55 165.94-44.61L165.94-44.61L165.94-44.61Q165.94-41.72 168.52-40.63L168.52-40.63L168.52-40.63Q169.38-40.31 170.23-40.31L170.23-40.31L170.23-40.31Q172.97-40.31 174.06-42.81L174.06-42.81L174.06-42.81Q174.45-43.67 174.45-44.61" fill="#ffffff" stroke="none" stroke-width="none" transform="translate(-151.989990234375,18.53778270374646)" style="fill: rgb(255, 255, 255);"></path></g><g class="path" style="transform: scale(0.91); transform-origin: 52.11px 1.54778px; animation: 1s linear -0.24s infinite normal forwards running breath-25d93ce0-c561-499c-9d0b-574a4c13aaf0;"><path d="M199.30-1.95L199.30-1.95L195.78-1.95L195.78-18.83L195.78-18.83Q196.02-26.09 200.94-29.30L200.94-29.30L200.94-29.30Q203.05-30.63 205.23-30.63L205.23-30.63L205.23-30.63Q210-30.63 211.72-26.17L211.72-26.17L211.72-26.17Q212.42-24.38 212.42-22.11L212.42-22.11L212.42-6.64L212.42-6.64Q212.42-3.05 210.39-2.34L210.39-2.34L210.39-2.34Q209.22-1.95 206.56-1.95L206.56-1.95L206.56 0L224.14 0L224.14 0Q224.14-1.72 222.97-1.88L222.97-1.88L222.97-1.88Q222.66-1.95 222.19-1.95L222.19-1.95L218.28-1.95L218.28-21.33L218.28-21.33Q218.28-29.14 212.89-32.50L212.89-32.50L212.89-32.50Q210.39-33.98 207.50-33.98L207.50-33.98L207.50-33.98Q201.72-33.98 197.97-29.38L197.97-29.38L197.97-29.38Q196.56-27.58 195.70-25.39L195.70-25.39L195.39-33.20L184.06-33.20L184.06-31.25L189.92-31.25L189.92-6.64L189.92-6.64Q189.92-3.05 187.89-2.34L187.89-2.34L187.89-2.34Q186.72-1.95 184.06-1.95L184.06-1.95L184.06 0L201.25 0L201.25 0Q201.25-1.72 200.08-1.88L200.08-1.88L200.08-1.88Q199.77-1.95 199.30-1.95" fill="#ffffff" stroke="none" stroke-width="none" transform="translate(-151.989990234375,18.53778270374646)" style="fill: rgb(255, 255, 255);"></path></g><g class="path" style="transform: scale(0.91); transform-origin: 94.495px 6.85778px; animation: 1s linear -0.18s infinite normal forwards running breath-25d93ce0-c561-499c-9d0b-574a4c13aaf0;"><path d="M236.25-21.64L236.25-21.64L236.25-21.64Q236.41-31.95 244.06-32.03L244.06-32.03L244.06-32.03Q251.72-31.88 251.80-21.64L251.80-21.64L251.80-21.64Q251.64-11.02 244.06-10.94L244.06-10.94L244.06-10.94Q236.33-11.09 236.25-21.64zM244.14-33.98L244.14-33.98L244.14-33.98Q237.11-33.98 232.97-29.45L232.97-29.45L232.97-29.45Q230-26.09 230-21.56L230-21.56L230-21.56Q230-15.63 235.78-11.72L235.78-11.72L235.78-11.72Q236.33-11.33 236.88-11.02L236.88-11.02L236.88-11.02Q231.88-11.02 230.63-6.72L230.63-6.72L230.63-6.72Q230.39-5.70 230.39-4.69L230.39-4.69L230.39-4.69Q230.47-0.55 233.75 1.48L233.75 1.48L233.75 1.48Q231.17 4.22 231.17 7.03L231.17 7.03L231.17 7.03Q231.17 11.33 236.25 13.44L236.25 13.44L236.25 13.44Q239.45 14.84 244.14 14.84L244.14 14.84L244.14 14.84Q256.02 14.84 259.84 9.06L259.84 9.06L259.84 9.06Q261.09 7.11 261.09 4.92L261.09 4.92L261.09 4.92Q261.09-1.80 253.36-2.81L253.36-2.81L253.36-2.81Q252.34-2.97 251.25-2.97L251.25-2.97L237.03-3.28L237.03-3.28Q233.44-3.52 233.36-6.41L233.36-6.41L233.36-6.41Q233.36-8.44 235.94-8.98L235.94-8.98L235.94-8.98Q236.48-9.06 237.11-9.06L237.11-9.06L243.98-8.98L243.98-8.98Q250.94-8.98 255.08-13.67L255.08-13.67L255.08-13.67Q258.05-17.03 258.05-21.64L258.05-21.64L258.05-21.64Q257.97-27.50 253.52-31.02L253.52-31.02L253.52-31.02Q254.22-33.52 256.17-33.98L256.17-33.98L256.17-33.98Q256.48-34.06 256.80-34.06L256.80-34.06L256.80-34.06Q257.89-34.06 259.14-32.89L259.14-32.89L259.14-32.89Q260-32.11 260.70-32.11L260.70-32.11L260.70-32.11Q262.66-32.58 262.97-34.61L262.97-34.61L262.97-34.61Q262.97-37.03 260.70-37.89L260.70-37.89L260.70-37.89Q259.84-38.20 258.98-38.20L258.98-38.20L258.98-38.20Q255.31-38.20 253.05-34.92L253.05-34.92L253.05-34.92Q252.19-33.67 251.72-32.19L251.72-32.19L251.72-32.19Q248.20-33.98 244.14-33.98zM244.14 12.81L244.14 12.81L244.14 12.81Q236.41 12.81 234.38 8.75L234.38 8.75L234.38 8.75Q233.83 7.66 233.83 6.56L233.83 6.56L233.83 6.56Q233.91 4.45 235.70 2.34L235.70 2.34L235.70 2.34Q237.27 2.66 238.28 2.66L238.28 2.66L250.31 2.81L250.31 2.81Q256.17 2.89 257.11 5.47L257.11 5.47L257.11 5.47Q257.34 6.09 257.34 7.03L257.34 7.03L257.34 7.03Q257.34 10.47 250.94 12.03L250.94 12.03L250.94 12.03Q247.81 12.81 244.14 12.81" fill="#ffffff" stroke="none" stroke-width="none" transform="translate(-151.989990234375,18.53778270374646)" style="fill: rgb(255, 255, 255);"></path></g><g class="path" style="transform: scale(0.91); transform-origin: 119.575px 14.9028px; animation: 1s linear -0.12s infinite normal forwards running breath-25d93ce0-c561-499c-9d0b-574a4c13aaf0;"><path d="M275.55-3.59L275.55-3.59L275.55-3.59Q275.55-6.17 273.20-7.27L273.20-7.27L273.20-7.27Q272.42-7.66 271.56-7.66L271.56-7.66L271.56-7.66Q268.98-7.66 267.97-5.31L267.97-5.31L267.97-5.31Q267.58-4.45 267.58-3.59L267.58-3.59L267.58-3.59Q267.58-1.09 269.84 0L269.84 0L269.84 0Q270.70 0.39 271.56 0.39L271.56 0.39L271.56 0.39Q274.06 0.39 275.16-1.88L275.16-1.88L275.16-1.88Q275.55-2.73 275.55-3.59" fill="#ffffff" stroke="none" stroke-width="none" transform="translate(-151.989990234375,18.53778270374646)" style="fill: rgb(255, 255, 255);"></path></g><g class="path" style="transform: scale(0.91); transform-origin: 135.355px 14.9028px; animation: 1s linear -0.06s infinite normal forwards running breath-25d93ce0-c561-499c-9d0b-574a4c13aaf0;"><path d="M291.33-3.59L291.33-3.59L291.33-3.59Q291.33-6.17 288.98-7.27L288.98-7.27L288.98-7.27Q288.20-7.66 287.34-7.66L287.34-7.66L287.34-7.66Q284.77-7.66 283.75-5.31L283.75-5.31L283.75-5.31Q283.36-4.45 283.36-3.59L283.36-3.59L283.36-3.59Q283.36-1.09 285.63 0L285.63 0L285.63 0Q286.48 0.39 287.34 0.39L287.34 0.39L287.34 0.39Q289.84 0.39 290.94-1.88L290.94-1.88L290.94-1.88Q291.33-2.73 291.33-3.59" fill="#ffffff" stroke="none" stroke-width="none" transform="translate(-151.989990234375,18.53778270374646)" style="fill: rgb(255, 255, 255);"></path></g><g class="path" style="transform: scale(0.91); transform-origin: 151.135px 14.9028px; animation: 1s linear 0s infinite normal forwards running breath-25d93ce0-c561-499c-9d0b-574a4c13aaf0;"><path d="M307.11-3.59L307.11-3.59L307.11-3.59Q307.11-6.17 304.77-7.27L304.77-7.27L304.77-7.27Q303.98-7.66 303.13-7.66L303.13-7.66L303.13-7.66Q300.55-7.66 299.53-5.31L299.53-5.31L299.53-5.31Q299.14-4.45 299.14-3.59L299.14-3.59L299.14-3.59Q299.14-1.09 301.41 0L301.41 0L301.41 0Q302.27 0.39 303.13 0.39L303.13 0.39L303.13 0.39Q305.63 0.39 306.72-1.88L306.72-1.88L306.72-1.88Q307.11-2.73 307.11-3.59" fill="#ffffff" stroke="none" stroke-width="none" transform="translate(-151.989990234375,18.53778270374646)" style="fill: rgb(255, 255, 255);"></path></g></g>
</g>
</g>
<style id="breath-25d93ce0-c561-499c-9d0b-574a4c13aaf0" data-anikit="">@keyframes breath-25d93ce0-c561-499c-9d0b-574a4c13aaf0
{
  0% {
    animation-timing-function: cubic-bezier(0.9647,0.2413,-0.0705,0.7911);
    transform: scale(0.9099999999999999);
  }
  51% {
    animation-timing-function: cubic-bezier(0.9226,0.2631,-0.0308,0.7628);
    transform: scale(1.02994);
  }
  100% {
    transform: scale(0.9099999999999999);
  }
}</style></svg>